<mxfile host="app.diagrams.net" agent="Mozilla/5.0 (Macintosh; Intel Mac OS X 10_15_7) AppleWebKit/605.1.15 (KHTML, like Gecko) Version/18.1.1 Safari/605.1.15" version="25.0.3">
  <diagram name="Page-1" id="btFddj9u0zUwPqEDD4T_">
    <mxGraphModel dx="667" dy="461" grid="1" gridSize="10" guides="1" tooltips="1" connect="1" arrows="1" fold="1" page="1" pageScale="1" pageWidth="827" pageHeight="1169" math="0" shadow="0">
      <root>
        <mxCell id="0" />
        <mxCell id="1" parent="0" />
        <mxCell id="urpMWXQShQDzjycf4EHo-1" value="" style="ellipse;html=1;shape=startState;fillColor=#000000;strokeColor=#080000;" vertex="1" parent="1">
          <mxGeometry x="130" y="80" width="30" height="30" as="geometry" />
        </mxCell>
        <mxCell id="urpMWXQShQDzjycf4EHo-2" value="" style="edgeStyle=orthogonalEdgeStyle;html=1;verticalAlign=bottom;endArrow=open;endSize=8;strokeColor=#050000;rounded=0;entryX=0.5;entryY=0;entryDx=0;entryDy=0;" edge="1" source="urpMWXQShQDzjycf4EHo-1" parent="1" target="urpMWXQShQDzjycf4EHo-3">
          <mxGeometry relative="1" as="geometry">
            <mxPoint x="145" y="150" as="targetPoint" />
          </mxGeometry>
        </mxCell>
        <mxCell id="urpMWXQShQDzjycf4EHo-5" value="" style="edgeStyle=orthogonalEdgeStyle;rounded=0;orthogonalLoop=1;jettySize=auto;html=1;" edge="1" parent="1" source="urpMWXQShQDzjycf4EHo-3" target="urpMWXQShQDzjycf4EHo-4">
          <mxGeometry relative="1" as="geometry">
            <Array as="points">
              <mxPoint x="145" y="210" />
              <mxPoint x="145" y="210" />
            </Array>
          </mxGeometry>
        </mxCell>
        <mxCell id="urpMWXQShQDzjycf4EHo-3" value="feature is requested&amp;nbsp;" style="rounded=1;whiteSpace=wrap;html=1;" vertex="1" parent="1">
          <mxGeometry x="100" y="140" width="90" height="40" as="geometry" />
        </mxCell>
        <mxCell id="urpMWXQShQDzjycf4EHo-9" value="" style="edgeStyle=orthogonalEdgeStyle;rounded=0;orthogonalLoop=1;jettySize=auto;html=1;" edge="1" parent="1" source="urpMWXQShQDzjycf4EHo-4">
          <mxGeometry relative="1" as="geometry">
            <mxPoint x="145" y="260" as="targetPoint" />
            <Array as="points">
              <mxPoint x="145" y="250" />
              <mxPoint x="145" y="250" />
            </Array>
          </mxGeometry>
        </mxCell>
        <mxCell id="urpMWXQShQDzjycf4EHo-4" value="Issue is created&amp;nbsp;" style="whiteSpace=wrap;html=1;rounded=1;" vertex="1" parent="1">
          <mxGeometry x="98.13" y="200" width="93.75" height="40" as="geometry" />
        </mxCell>
        <mxCell id="urpMWXQShQDzjycf4EHo-16" value="" style="edgeStyle=orthogonalEdgeStyle;rounded=0;orthogonalLoop=1;jettySize=auto;html=1;" edge="1" parent="1" source="urpMWXQShQDzjycf4EHo-8" target="urpMWXQShQDzjycf4EHo-15">
          <mxGeometry relative="1" as="geometry">
            <Array as="points">
              <mxPoint x="100" y="310" />
              <mxPoint x="100" y="310" />
            </Array>
          </mxGeometry>
        </mxCell>
        <mxCell id="urpMWXQShQDzjycf4EHo-22" value="no" style="edgeLabel;html=1;align=center;verticalAlign=middle;resizable=0;points=[];" vertex="1" connectable="0" parent="urpMWXQShQDzjycf4EHo-16">
          <mxGeometry x="-0.2" relative="1" as="geometry">
            <mxPoint as="offset" />
          </mxGeometry>
        </mxCell>
        <mxCell id="urpMWXQShQDzjycf4EHo-120" style="edgeStyle=orthogonalEdgeStyle;rounded=0;orthogonalLoop=1;jettySize=auto;html=1;" edge="1" parent="1" source="urpMWXQShQDzjycf4EHo-8">
          <mxGeometry relative="1" as="geometry">
            <mxPoint x="320" y="275" as="targetPoint" />
          </mxGeometry>
        </mxCell>
        <mxCell id="urpMWXQShQDzjycf4EHo-121" value="Yes" style="edgeLabel;html=1;align=center;verticalAlign=middle;resizable=0;points=[];" vertex="1" connectable="0" parent="urpMWXQShQDzjycf4EHo-120">
          <mxGeometry x="-0.0763" y="2" relative="1" as="geometry">
            <mxPoint x="1" as="offset" />
          </mxGeometry>
        </mxCell>
        <mxCell id="urpMWXQShQDzjycf4EHo-8" value="Is the program ready for extension?&amp;nbsp;" style="whiteSpace=wrap;html=1;rounded=1;" vertex="1" parent="1">
          <mxGeometry x="80" y="260" width="122.5" height="30" as="geometry" />
        </mxCell>
        <mxCell id="urpMWXQShQDzjycf4EHo-61" style="edgeStyle=orthogonalEdgeStyle;rounded=0;orthogonalLoop=1;jettySize=auto;html=1;entryX=0;entryY=0.5;entryDx=0;entryDy=0;" edge="1" parent="1" source="urpMWXQShQDzjycf4EHo-15" target="urpMWXQShQDzjycf4EHo-8">
          <mxGeometry relative="1" as="geometry">
            <Array as="points">
              <mxPoint x="100" y="410" />
              <mxPoint x="30" y="410" />
              <mxPoint x="30" y="275" />
            </Array>
          </mxGeometry>
        </mxCell>
        <mxCell id="urpMWXQShQDzjycf4EHo-15" value="Leve on &quot;&lt;i&gt;To do&quot;&lt;/i&gt; bord for now&amp;nbsp;" style="whiteSpace=wrap;html=1;rounded=1;" vertex="1" parent="1">
          <mxGeometry x="50" y="330" width="120" height="40" as="geometry" />
        </mxCell>
        <mxCell id="urpMWXQShQDzjycf4EHo-25" value="" style="edgeStyle=orthogonalEdgeStyle;rounded=0;orthogonalLoop=1;jettySize=auto;html=1;" edge="1" parent="1" source="urpMWXQShQDzjycf4EHo-20" target="urpMWXQShQDzjycf4EHo-24">
          <mxGeometry relative="1" as="geometry" />
        </mxCell>
        <mxCell id="urpMWXQShQDzjycf4EHo-20" value="Move to&lt;i&gt;&amp;nbsp;&quot;In progress&quot;&lt;/i&gt;" style="whiteSpace=wrap;html=1;rounded=1;" vertex="1" parent="1">
          <mxGeometry x="320.62" y="260" width="127.5" height="35" as="geometry" />
        </mxCell>
        <mxCell id="urpMWXQShQDzjycf4EHo-31" value="" style="edgeStyle=orthogonalEdgeStyle;rounded=0;orthogonalLoop=1;jettySize=auto;html=1;" edge="1" parent="1" source="urpMWXQShQDzjycf4EHo-24" target="urpMWXQShQDzjycf4EHo-30">
          <mxGeometry relative="1" as="geometry" />
        </mxCell>
        <mxCell id="urpMWXQShQDzjycf4EHo-24" value="Assign team members&amp;nbsp;" style="whiteSpace=wrap;html=1;rounded=1;" vertex="1" parent="1">
          <mxGeometry x="208.12" y="350" width="120" height="37.5" as="geometry" />
        </mxCell>
        <mxCell id="urpMWXQShQDzjycf4EHo-33" value="" style="edgeStyle=orthogonalEdgeStyle;rounded=0;orthogonalLoop=1;jettySize=auto;html=1;exitX=0;exitY=1;exitDx=0;exitDy=0;entryX=0.647;entryY=0;entryDx=0;entryDy=0;entryPerimeter=0;" edge="1" parent="1" target="urpMWXQShQDzjycf4EHo-32">
          <mxGeometry relative="1" as="geometry">
            <mxPoint x="390.31" y="370" as="sourcePoint" />
            <mxPoint x="231.26000000000005" y="410.51250000000005" as="targetPoint" />
            <Array as="points">
              <mxPoint x="450" y="370" />
              <mxPoint x="450" y="403" />
              <mxPoint x="228" y="403" />
            </Array>
          </mxGeometry>
        </mxCell>
        <mxCell id="urpMWXQShQDzjycf4EHo-30" value="create new branch&amp;nbsp;" style="whiteSpace=wrap;html=1;rounded=1;" vertex="1" parent="1">
          <mxGeometry x="390" y="350" width="110" height="37.5" as="geometry" />
        </mxCell>
        <mxCell id="urpMWXQShQDzjycf4EHo-128" value="" style="edgeStyle=orthogonalEdgeStyle;rounded=0;orthogonalLoop=1;jettySize=auto;html=1;" edge="1" parent="1" source="urpMWXQShQDzjycf4EHo-32" target="urpMWXQShQDzjycf4EHo-34">
          <mxGeometry relative="1" as="geometry">
            <Array as="points">
              <mxPoint x="100" y="430" />
            </Array>
          </mxGeometry>
        </mxCell>
        <mxCell id="urpMWXQShQDzjycf4EHo-134" value="" style="edgeStyle=orthogonalEdgeStyle;rounded=0;orthogonalLoop=1;jettySize=auto;html=1;exitX=0.439;exitY=1.013;exitDx=0;exitDy=0;exitPerimeter=0;entryX=0;entryY=0.5;entryDx=0;entryDy=0;" edge="1" parent="1" source="urpMWXQShQDzjycf4EHo-32" target="urpMWXQShQDzjycf4EHo-133">
          <mxGeometry relative="1" as="geometry">
            <mxPoint x="270.30999999999995" y="464.5" as="sourcePoint" />
            <mxPoint x="353.71433333333334" y="464.5" as="targetPoint" />
            <Array as="points">
              <mxPoint x="203" y="465" />
            </Array>
          </mxGeometry>
        </mxCell>
        <mxCell id="urpMWXQShQDzjycf4EHo-32" value="work on issue" style="whiteSpace=wrap;html=1;rounded=1;" vertex="1" parent="1">
          <mxGeometry x="150.31" y="420" width="120" height="37.5" as="geometry" />
        </mxCell>
        <mxCell id="urpMWXQShQDzjycf4EHo-34" value="create sub-branches to brake up problem&amp;nbsp;" style="whiteSpace=wrap;html=1;rounded=1;" vertex="1" parent="1">
          <mxGeometry x="10" y="440" width="120" height="33.5" as="geometry" />
        </mxCell>
        <mxCell id="urpMWXQShQDzjycf4EHo-55" value="" style="edgeStyle=orthogonalEdgeStyle;rounded=0;orthogonalLoop=1;jettySize=auto;html=1;exitX=1;exitY=1;exitDx=0;exitDy=0;" edge="1" parent="1" source="urpMWXQShQDzjycf4EHo-133" target="urpMWXQShQDzjycf4EHo-54">
          <mxGeometry relative="1" as="geometry">
            <mxPoint x="388.4000000000001" y="483.5" as="sourcePoint" />
            <Array as="points">
              <mxPoint x="388" y="488" />
              <mxPoint x="388" y="500" />
              <mxPoint x="458" y="500" />
            </Array>
          </mxGeometry>
        </mxCell>
        <mxCell id="urpMWXQShQDzjycf4EHo-56" value="&amp;nbsp;yes&amp;nbsp;" style="edgeLabel;html=1;align=center;verticalAlign=middle;resizable=0;points=[];" vertex="1" connectable="0" parent="urpMWXQShQDzjycf4EHo-55">
          <mxGeometry x="-0.1925" y="1" relative="1" as="geometry">
            <mxPoint x="17" as="offset" />
          </mxGeometry>
        </mxCell>
        <mxCell id="urpMWXQShQDzjycf4EHo-40" style="edgeStyle=orthogonalEdgeStyle;rounded=0;orthogonalLoop=1;jettySize=auto;html=1;entryX=0.5;entryY=1;entryDx=0;entryDy=0;exitX=0.407;exitY=0.867;exitDx=0;exitDy=0;exitPerimeter=0;" edge="1" parent="1" source="urpMWXQShQDzjycf4EHo-133" target="urpMWXQShQDzjycf4EHo-34">
          <mxGeometry relative="1" as="geometry">
            <mxPoint x="378.95000000000005" y="483.1624999999999" as="sourcePoint" />
            <mxPoint x="248.43" y="483.98750000000007" as="targetPoint" />
            <Array as="points">
              <mxPoint x="385" y="498" />
              <mxPoint x="385" y="490" />
              <mxPoint x="379" y="490" />
              <mxPoint x="379" y="503" />
              <mxPoint x="70" y="503" />
            </Array>
          </mxGeometry>
        </mxCell>
        <mxCell id="urpMWXQShQDzjycf4EHo-41" value="&amp;nbsp;No&amp;nbsp;" style="edgeLabel;html=1;align=center;verticalAlign=middle;resizable=0;points=[];" vertex="1" connectable="0" parent="urpMWXQShQDzjycf4EHo-40">
          <mxGeometry x="0.1423" y="-1" relative="1" as="geometry">
            <mxPoint x="9" as="offset" />
          </mxGeometry>
        </mxCell>
        <mxCell id="urpMWXQShQDzjycf4EHo-46" value="" style="edgeStyle=orthogonalEdgeStyle;rounded=0;orthogonalLoop=1;jettySize=auto;html=1;" edge="1" parent="1" source="urpMWXQShQDzjycf4EHo-42" target="urpMWXQShQDzjycf4EHo-45">
          <mxGeometry relative="1" as="geometry" />
        </mxCell>
        <mxCell id="urpMWXQShQDzjycf4EHo-42" value="create test branch&amp;nbsp;" style="whiteSpace=wrap;html=1;rounded=1;" vertex="1" parent="1">
          <mxGeometry x="538.43" y="626.5" width="120" height="27.5" as="geometry" />
        </mxCell>
        <mxCell id="urpMWXQShQDzjycf4EHo-48" value="" style="edgeStyle=orthogonalEdgeStyle;rounded=0;orthogonalLoop=1;jettySize=auto;html=1;" edge="1" parent="1" source="urpMWXQShQDzjycf4EHo-45" target="urpMWXQShQDzjycf4EHo-47">
          <mxGeometry relative="1" as="geometry" />
        </mxCell>
        <mxCell id="urpMWXQShQDzjycf4EHo-45" value="Add test&#39;s" style="whiteSpace=wrap;html=1;rounded=1;" vertex="1" parent="1">
          <mxGeometry x="538.43" y="676.5" width="120" height="37.5" as="geometry" />
        </mxCell>
        <mxCell id="urpMWXQShQDzjycf4EHo-50" value="" style="edgeStyle=orthogonalEdgeStyle;rounded=0;orthogonalLoop=1;jettySize=auto;html=1;" edge="1" parent="1" target="urpMWXQShQDzjycf4EHo-49">
          <mxGeometry relative="1" as="geometry">
            <mxPoint x="588.4299999999998" y="765.25" as="sourcePoint" />
            <Array as="points">
              <mxPoint x="480" y="765" />
              <mxPoint x="480" y="697" />
            </Array>
          </mxGeometry>
        </mxCell>
        <mxCell id="urpMWXQShQDzjycf4EHo-47" value="Merge test branch into issue branch&amp;nbsp;" style="whiteSpace=wrap;html=1;rounded=1;" vertex="1" parent="1">
          <mxGeometry x="538.43" y="746.5" width="120" height="37.5" as="geometry" />
        </mxCell>
        <mxCell id="urpMWXQShQDzjycf4EHo-130" style="edgeStyle=orthogonalEdgeStyle;rounded=0;orthogonalLoop=1;jettySize=auto;html=1;exitX=0.5;exitY=1;exitDx=0;exitDy=0;entryX=0.5;entryY=0;entryDx=0;entryDy=0;" edge="1" parent="1" source="urpMWXQShQDzjycf4EHo-49" target="urpMWXQShQDzjycf4EHo-135">
          <mxGeometry relative="1" as="geometry">
            <mxPoint x="400.30999999999995" y="730" as="targetPoint" />
          </mxGeometry>
        </mxCell>
        <mxCell id="urpMWXQShQDzjycf4EHo-49" value="GitHub Actions&lt;div&gt;&amp;nbsp;run checks&lt;/div&gt;" style="whiteSpace=wrap;html=1;rounded=1;" vertex="1" parent="1">
          <mxGeometry x="340.31" y="676.5" width="120" height="40" as="geometry" />
        </mxCell>
        <mxCell id="urpMWXQShQDzjycf4EHo-57" style="edgeStyle=orthogonalEdgeStyle;rounded=0;orthogonalLoop=1;jettySize=auto;html=1;" edge="1" parent="1" source="urpMWXQShQDzjycf4EHo-54" target="urpMWXQShQDzjycf4EHo-42">
          <mxGeometry relative="1" as="geometry" />
        </mxCell>
        <mxCell id="urpMWXQShQDzjycf4EHo-58" value="&amp;nbsp;Yes&amp;nbsp;" style="edgeLabel;html=1;align=center;verticalAlign=middle;resizable=0;points=[];" vertex="1" connectable="0" parent="urpMWXQShQDzjycf4EHo-57">
          <mxGeometry x="-0.5524" relative="1" as="geometry">
            <mxPoint as="offset" />
          </mxGeometry>
        </mxCell>
        <mxCell id="urpMWXQShQDzjycf4EHo-60" value="" style="edgeStyle=orthogonalEdgeStyle;rounded=0;orthogonalLoop=1;jettySize=auto;html=1;" edge="1" parent="1" source="urpMWXQShQDzjycf4EHo-54" target="urpMWXQShQDzjycf4EHo-59">
          <mxGeometry relative="1" as="geometry" />
        </mxCell>
        <mxCell id="urpMWXQShQDzjycf4EHo-71" value="&amp;nbsp;no&amp;nbsp;" style="edgeLabel;html=1;align=center;verticalAlign=middle;resizable=0;points=[];" vertex="1" connectable="0" parent="urpMWXQShQDzjycf4EHo-60">
          <mxGeometry x="-0.2974" y="-2" relative="1" as="geometry">
            <mxPoint as="offset" />
          </mxGeometry>
        </mxCell>
        <mxCell id="urpMWXQShQDzjycf4EHo-54" value="Doing&lt;div&gt;&amp;nbsp;best practices&amp;nbsp;&lt;/div&gt;" style="whiteSpace=wrap;html=1;rounded=1;" vertex="1" parent="1">
          <mxGeometry x="398.43" y="520" width="120" height="40" as="geometry" />
        </mxCell>
        <mxCell id="urpMWXQShQDzjycf4EHo-64" value="" style="edgeStyle=orthogonalEdgeStyle;rounded=0;orthogonalLoop=1;jettySize=auto;html=1;" edge="1" parent="1" source="urpMWXQShQDzjycf4EHo-59" target="urpMWXQShQDzjycf4EHo-63">
          <mxGeometry relative="1" as="geometry" />
        </mxCell>
        <mxCell id="urpMWXQShQDzjycf4EHo-59" value="create pull request&amp;nbsp;" style="whiteSpace=wrap;html=1;rounded=1;" vertex="1" parent="1">
          <mxGeometry x="192.19" y="610" width="120" height="40" as="geometry" />
        </mxCell>
        <mxCell id="urpMWXQShQDzjycf4EHo-63" value="Assign rewiver" style="whiteSpace=wrap;html=1;rounded=1;" vertex="1" parent="1">
          <mxGeometry x="340.31" y="610" width="100" height="40" as="geometry" />
        </mxCell>
        <mxCell id="urpMWXQShQDzjycf4EHo-70" style="edgeStyle=orthogonalEdgeStyle;rounded=0;orthogonalLoop=1;jettySize=auto;html=1;entryX=0.331;entryY=0.033;entryDx=0;entryDy=0;entryPerimeter=0;" edge="1" parent="1" source="urpMWXQShQDzjycf4EHo-63" target="urpMWXQShQDzjycf4EHo-49">
          <mxGeometry relative="1" as="geometry">
            <Array as="points">
              <mxPoint x="380" y="630" />
            </Array>
          </mxGeometry>
        </mxCell>
        <mxCell id="urpMWXQShQDzjycf4EHo-95" value="Yes" style="edgeStyle=orthogonalEdgeStyle;rounded=0;orthogonalLoop=1;jettySize=auto;html=1;" edge="1" parent="1" source="urpMWXQShQDzjycf4EHo-135" target="urpMWXQShQDzjycf4EHo-94">
          <mxGeometry relative="1" as="geometry">
            <mxPoint x="400.30999999999995" y="760" as="sourcePoint" />
          </mxGeometry>
        </mxCell>
        <mxCell id="urpMWXQShQDzjycf4EHo-79" value="reject pull request&amp;nbsp;" style="rounded=1;whiteSpace=wrap;html=1;" vertex="1" parent="1">
          <mxGeometry x="190" y="670" width="80" height="30" as="geometry" />
        </mxCell>
        <mxCell id="urpMWXQShQDzjycf4EHo-92" style="edgeStyle=orthogonalEdgeStyle;rounded=0;orthogonalLoop=1;jettySize=auto;html=1;entryX=0.344;entryY=0.957;entryDx=0;entryDy=0;entryPerimeter=0;exitX=0;exitY=0.5;exitDx=0;exitDy=0;" edge="1" parent="1" source="urpMWXQShQDzjycf4EHo-79">
          <mxGeometry relative="1" as="geometry">
            <mxPoint x="110" y="660" as="sourcePoint" />
            <mxPoint x="51.119999999999976" y="473.4975" as="targetPoint" />
            <Array as="points">
              <mxPoint x="190" y="680" />
              <mxPoint x="50" y="680" />
              <mxPoint x="50" y="631" />
              <mxPoint x="51" y="631" />
            </Array>
          </mxGeometry>
        </mxCell>
        <mxCell id="urpMWXQShQDzjycf4EHo-97" value="" style="edgeStyle=orthogonalEdgeStyle;rounded=0;orthogonalLoop=1;jettySize=auto;html=1;" edge="1" parent="1" source="urpMWXQShQDzjycf4EHo-94">
          <mxGeometry relative="1" as="geometry">
            <mxPoint x="400" y="880" as="targetPoint" />
          </mxGeometry>
        </mxCell>
        <mxCell id="urpMWXQShQDzjycf4EHo-94" value="reviewer checks code" style="whiteSpace=wrap;html=1;rounded=1;" vertex="1" parent="1">
          <mxGeometry x="340.31" y="830" width="120" height="30" as="geometry" />
        </mxCell>
        <mxCell id="urpMWXQShQDzjycf4EHo-102" style="edgeStyle=orthogonalEdgeStyle;rounded=0;orthogonalLoop=1;jettySize=auto;html=1;entryX=0.25;entryY=1;entryDx=0;entryDy=0;" edge="1" parent="1" source="urpMWXQShQDzjycf4EHo-138" target="urpMWXQShQDzjycf4EHo-79">
          <mxGeometry relative="1" as="geometry">
            <mxPoint x="196" y="720" as="targetPoint" />
            <mxPoint x="350.30999999999995" y="905" as="sourcePoint" />
            <Array as="points">
              <mxPoint x="97" y="910" />
              <mxPoint x="97" y="750" />
              <mxPoint x="96" y="750" />
              <mxPoint x="96" y="740" />
              <mxPoint x="210" y="740" />
            </Array>
          </mxGeometry>
        </mxCell>
        <mxCell id="urpMWXQShQDzjycf4EHo-103" value="&amp;nbsp;Needs more work&amp;nbsp;" style="edgeLabel;html=1;align=center;verticalAlign=middle;resizable=0;points=[];" vertex="1" connectable="0" parent="urpMWXQShQDzjycf4EHo-102">
          <mxGeometry x="-0.4277" y="-1" relative="1" as="geometry">
            <mxPoint x="23" as="offset" />
          </mxGeometry>
        </mxCell>
        <mxCell id="urpMWXQShQDzjycf4EHo-105" value="" style="edgeStyle=orthogonalEdgeStyle;rounded=0;orthogonalLoop=1;jettySize=auto;html=1;exitX=0.944;exitY=0.605;exitDx=0;exitDy=0;exitPerimeter=0;" edge="1" parent="1" source="urpMWXQShQDzjycf4EHo-138" target="urpMWXQShQDzjycf4EHo-104">
          <mxGeometry relative="1" as="geometry">
            <mxPoint x="450.30999999999995" y="905" as="sourcePoint" />
            <Array as="points">
              <mxPoint x="510" y="910" />
              <mxPoint x="510" y="910" />
            </Array>
          </mxGeometry>
        </mxCell>
        <mxCell id="urpMWXQShQDzjycf4EHo-106" value="&amp;nbsp;yes&amp;nbsp;" style="edgeLabel;html=1;align=center;verticalAlign=middle;resizable=0;points=[];" vertex="1" connectable="0" parent="urpMWXQShQDzjycf4EHo-105">
          <mxGeometry x="-0.0917" y="1" relative="1" as="geometry">
            <mxPoint as="offset" />
          </mxGeometry>
        </mxCell>
        <mxCell id="urpMWXQShQDzjycf4EHo-108" value="" style="edgeStyle=orthogonalEdgeStyle;rounded=0;orthogonalLoop=1;jettySize=auto;html=1;" edge="1" parent="1" source="urpMWXQShQDzjycf4EHo-104" target="urpMWXQShQDzjycf4EHo-107">
          <mxGeometry relative="1" as="geometry" />
        </mxCell>
        <mxCell id="urpMWXQShQDzjycf4EHo-104" value="Accept pull request&amp;nbsp;" style="whiteSpace=wrap;html=1;rounded=1;" vertex="1" parent="1">
          <mxGeometry x="530.31" y="890" width="100" height="30" as="geometry" />
        </mxCell>
        <mxCell id="urpMWXQShQDzjycf4EHo-110" value="" style="edgeStyle=orthogonalEdgeStyle;rounded=0;orthogonalLoop=1;jettySize=auto;html=1;" edge="1" parent="1" source="urpMWXQShQDzjycf4EHo-107" target="urpMWXQShQDzjycf4EHo-109">
          <mxGeometry relative="1" as="geometry">
            <Array as="points">
              <mxPoint x="708" y="955" />
            </Array>
          </mxGeometry>
        </mxCell>
        <mxCell id="urpMWXQShQDzjycf4EHo-126" style="edgeStyle=orthogonalEdgeStyle;rounded=0;orthogonalLoop=1;jettySize=auto;html=1;entryX=1;entryY=0.75;entryDx=0;entryDy=0;" edge="1" parent="1" source="urpMWXQShQDzjycf4EHo-107" target="urpMWXQShQDzjycf4EHo-42">
          <mxGeometry relative="1" as="geometry" />
        </mxCell>
        <mxCell id="urpMWXQShQDzjycf4EHo-127" value="Does not have test yet?" style="edgeLabel;html=1;align=center;verticalAlign=middle;resizable=0;points=[];" vertex="1" connectable="0" parent="urpMWXQShQDzjycf4EHo-126">
          <mxGeometry x="-0.5015" y="-3" relative="1" as="geometry">
            <mxPoint x="-3" y="-7" as="offset" />
          </mxGeometry>
        </mxCell>
        <mxCell id="urpMWXQShQDzjycf4EHo-107" value="Merge to main branch" style="whiteSpace=wrap;html=1;rounded=1;" vertex="1" parent="1">
          <mxGeometry x="658.43" y="890" width="100" height="30" as="geometry" />
        </mxCell>
        <mxCell id="urpMWXQShQDzjycf4EHo-112" value="" style="edgeStyle=orthogonalEdgeStyle;rounded=0;orthogonalLoop=1;jettySize=auto;html=1;" edge="1" parent="1" source="urpMWXQShQDzjycf4EHo-109" target="urpMWXQShQDzjycf4EHo-111">
          <mxGeometry relative="1" as="geometry">
            <Array as="points">
              <mxPoint x="460" y="955" />
              <mxPoint x="460" y="955" />
            </Array>
          </mxGeometry>
        </mxCell>
        <mxCell id="urpMWXQShQDzjycf4EHo-115" value="" style="edgeStyle=orthogonalEdgeStyle;rounded=0;orthogonalLoop=1;jettySize=auto;html=1;" edge="1" parent="1" source="urpMWXQShQDzjycf4EHo-109" target="urpMWXQShQDzjycf4EHo-114">
          <mxGeometry relative="1" as="geometry">
            <Array as="points">
              <mxPoint x="540.31" y="1030" />
            </Array>
          </mxGeometry>
        </mxCell>
        <mxCell id="urpMWXQShQDzjycf4EHo-117" value="Has version&lt;div&gt;&amp;nbsp;number?&lt;/div&gt;" style="edgeLabel;html=1;align=center;verticalAlign=middle;resizable=0;points=[];" vertex="1" connectable="0" parent="urpMWXQShQDzjycf4EHo-115">
          <mxGeometry x="-0.7605" y="-1" relative="1" as="geometry">
            <mxPoint x="-1" y="18" as="offset" />
          </mxGeometry>
        </mxCell>
        <mxCell id="urpMWXQShQDzjycf4EHo-109" value="run workflow checks" style="whiteSpace=wrap;html=1;rounded=1;" vertex="1" parent="1">
          <mxGeometry x="490.31" y="940" width="100" height="30" as="geometry" />
        </mxCell>
        <mxCell id="urpMWXQShQDzjycf4EHo-123" value="" style="edgeStyle=orthogonalEdgeStyle;rounded=0;orthogonalLoop=1;jettySize=auto;html=1;" edge="1" parent="1" source="urpMWXQShQDzjycf4EHo-111" target="urpMWXQShQDzjycf4EHo-122">
          <mxGeometry relative="1" as="geometry" />
        </mxCell>
        <mxCell id="urpMWXQShQDzjycf4EHo-111" value="deploy to Azure&amp;nbsp;" style="whiteSpace=wrap;html=1;rounded=1;" vertex="1" parent="1">
          <mxGeometry x="312.19" y="940" width="100" height="30" as="geometry" />
        </mxCell>
        <mxCell id="urpMWXQShQDzjycf4EHo-116" style="edgeStyle=orthogonalEdgeStyle;rounded=0;orthogonalLoop=1;jettySize=auto;html=1;entryX=0.5;entryY=1;entryDx=0;entryDy=0;" edge="1" parent="1" source="urpMWXQShQDzjycf4EHo-114" target="urpMWXQShQDzjycf4EHo-111">
          <mxGeometry relative="1" as="geometry">
            <Array as="points">
              <mxPoint x="362" y="1030" />
            </Array>
          </mxGeometry>
        </mxCell>
        <mxCell id="urpMWXQShQDzjycf4EHo-114" value="create release&amp;nbsp;" style="whiteSpace=wrap;html=1;rounded=1;" vertex="1" parent="1">
          <mxGeometry x="395" y="1020" width="100" height="30" as="geometry" />
        </mxCell>
        <mxCell id="urpMWXQShQDzjycf4EHo-118" value="" style="ellipse;html=1;shape=endState;fillColor=#000000;strokeColor=#030000;" vertex="1" parent="1">
          <mxGeometry x="98.13" y="940" width="30" height="30" as="geometry" />
        </mxCell>
        <mxCell id="urpMWXQShQDzjycf4EHo-124" style="edgeStyle=orthogonalEdgeStyle;rounded=0;orthogonalLoop=1;jettySize=auto;html=1;entryX=1;entryY=0.5;entryDx=0;entryDy=0;" edge="1" parent="1" source="urpMWXQShQDzjycf4EHo-122" target="urpMWXQShQDzjycf4EHo-118">
          <mxGeometry relative="1" as="geometry" />
        </mxCell>
        <mxCell id="urpMWXQShQDzjycf4EHo-122" value="Close issue&lt;div&gt;move to &lt;i&gt;done&lt;/i&gt;&amp;nbsp;&lt;/div&gt;" style="whiteSpace=wrap;html=1;rounded=1;" vertex="1" parent="1">
          <mxGeometry x="170.31" y="940" width="100" height="30" as="geometry" />
        </mxCell>
        <mxCell id="urpMWXQShQDzjycf4EHo-133" value="acceptance&lt;div&gt;&amp;nbsp; criteria fulfilled&amp;nbsp;&lt;/div&gt;" style="rhombus;whiteSpace=wrap;html=1;rounded=1;" vertex="1" parent="1">
          <mxGeometry x="328.12" y="420" width="109.69" height="90" as="geometry" />
        </mxCell>
        <mxCell id="urpMWXQShQDzjycf4EHo-136" value="" style="edgeStyle=orthogonalEdgeStyle;rounded=0;orthogonalLoop=1;jettySize=auto;html=1;" edge="1" parent="1" target="urpMWXQShQDzjycf4EHo-135">
          <mxGeometry relative="1" as="geometry">
            <mxPoint x="400.30999999999995" y="760" as="sourcePoint" />
            <mxPoint x="400" y="820" as="targetPoint" />
          </mxGeometry>
        </mxCell>
        <mxCell id="urpMWXQShQDzjycf4EHo-135" value="pass" style="rhombus;whiteSpace=wrap;html=1;" vertex="1" parent="1">
          <mxGeometry x="369.21" y="737.25" width="62.19" height="56" as="geometry" />
        </mxCell>
        <mxCell id="urpMWXQShQDzjycf4EHo-137" style="edgeStyle=orthogonalEdgeStyle;rounded=0;orthogonalLoop=1;jettySize=auto;html=1;entryX=0.67;entryY=1.048;entryDx=0;entryDy=0;entryPerimeter=0;" edge="1" parent="1" source="urpMWXQShQDzjycf4EHo-135" target="urpMWXQShQDzjycf4EHo-79">
          <mxGeometry relative="1" as="geometry" />
        </mxCell>
        <mxCell id="urpMWXQShQDzjycf4EHo-138" value="looks good?" style="rhombus;whiteSpace=wrap;html=1;" vertex="1" parent="1">
          <mxGeometry x="360" y="880" width="80" height="50" as="geometry" />
        </mxCell>
      </root>
    </mxGraphModel>
  </diagram>
</mxfile>
